<svg height="512" viewBox="0 0 64 64" width="512" xmlns="http://www.w3.org/2000/svg" xmlns:xlink="http://www.w3.org/1999/xlink"><linearGradient id="New_Gradient_Swatch_1" gradientUnits="userSpaceOnUse" x1="40" x2="40" y1="1.908" y2="67.004"><stop offset="0" stop-color="#fff33b"/><stop offset=".014" stop-color="#fee72e"/><stop offset=".042" stop-color="#fed51b"/><stop offset=".07" stop-color="#fdca10"/><stop offset=".1" stop-color="#fdc70c"/><stop offset=".4" stop-color="#f3903f"/><stop offset=".8" stop-color="#ed683c"/><stop offset="1" stop-color="#e93e3a"/></linearGradient><linearGradient id="New_Gradient_Swatch_1-2" x1="36" x2="36" xlink:href="#New_Gradient_Swatch_1" y1="1.908" y2="67.004"/><linearGradient id="New_Gradient_Swatch_1-3" x1="20" x2="20" xlink:href="#New_Gradient_Swatch_1" y1="1.908" y2="67.004"/><linearGradient id="New_Gradient_Swatch_1-4" x1="25.5" x2="25.5" xlink:href="#New_Gradient_Swatch_1" y1="1.908" y2="67.004"/><path d="m61 2h-12a1 1 0 0 0 -1 1v27.586l-28.293-28.293a1 1 0 0 0 -1.707.707v42a1 1 0 0 0 1 1h29v15a1 1 0 0 0 1 1h12a1 1 0 0 0 1-1v-58a1 1 0 0 0 -1-1zm-20 42v-3h-2v3h-4v-3h-2v3h-4v-3h-2v3h-7v-2h3v-2h-3v-4h3v-2h-3v-4h3v-2h-3v-4h3v-2h-3v-4h3v-2h-3v-4h3v-2h-3v-4.586l28 28v10.586zm9 16v-56h10v3h-3v2h3v2h-5v2h5v2h-3v2h3v2h-5v2h5v2h-3v2h3v2h-5v2h5v2h-3v2h3v2h-5v2h5v2h-3v2h3v2h-5v2h5v2h-3v2h3v2h-5v2h5v2h-3v2h3v3z" fill="url(#New_Gradient_Swatch_1)"/><path d="m46.707 37.293-20-20a1 1 0 0 0 -1.707.707v20a1 1 0 0 0 1 1h20a1 1 0 0 0 .707-1.707zm-19.707-.293v-16.586l16.586 16.586z" fill="url(#New_Gradient_Swatch_1-2)"/><path d="m37 48h-21v-45a1 1 0 0 0 -1-1h-12a1 1 0 0 0 -1 1v58a1 1 0 0 0 1 1h34a1 1 0 0 0 1-1v-12a1 1 0 0 0 -1-1zm-23-44v6h-3v2h3v6h-3v2h3v6h-3v2h3v6h-3v2h3v6h-3v2h3v4.586l-10 10v-6.586h5v-2h-5v-2h3v-2h-3v-2h5v-2h-5v-2h3v-2h-3v-2h5v-2h-5v-2h3v-2h-3v-2h5v-2h-5v-2h3v-2h-3v-2h5v-2h-5v-2h3v-2h-3v-2h5v-2h-5v-2h3v-2h-3v-2zm22 56h-30.586l10-10h20.586z" fill="url(#New_Gradient_Swatch_1-3)"/><path d="m18 58h15a1 1 0 0 0 1-1v-4a1 1 0 0 0 -1-1h-15a1 1 0 0 0 -1 1v4a1 1 0 0 0 1 1zm1-4h13v2h-13z" fill="url(#New_Gradient_Swatch_1-4)"/></svg>